<svg xmlns="http://www.w3.org/2000/svg" xmlns:xlink="http://www.w3.org/1999/xlink" width="220" zoomAndPan="magnify" viewBox="0 0 165 36.000001" height="48" preserveAspectRatio="xMidYMid meet" version="1.0"><defs><g/></defs><g fill="#ffffff" fill-opacity="1"><g transform="translate(30.526761, 26.713083)"><g><path d="M 4.65625 0.234375 C 3.882812 0.234375 3.21875 0.09375 2.65625 -0.1875 C 2.09375 -0.46875 1.660156 -0.878906 1.359375 -1.421875 C 1.054688 -1.972656 0.90625 -2.628906 0.90625 -3.390625 C 0.90625 -4.097656 1.054688 -4.691406 1.359375 -5.171875 C 1.660156 -5.648438 2.128906 -6.039062 2.765625 -6.34375 C 3.398438 -6.65625 4.226562 -6.894531 5.25 -7.0625 C 5.96875 -7.175781 6.507812 -7.300781 6.875 -7.4375 C 7.25 -7.570312 7.5 -7.722656 7.625 -7.890625 C 7.757812 -8.066406 7.828125 -8.289062 7.828125 -8.5625 C 7.828125 -8.945312 7.691406 -9.238281 7.421875 -9.4375 C 7.160156 -9.632812 6.71875 -9.734375 6.09375 -9.734375 C 5.4375 -9.734375 4.804688 -9.585938 4.203125 -9.296875 C 3.609375 -9.003906 3.09375 -8.613281 2.65625 -8.125 L 2.4375 -8.125 L 1.171875 -10.015625 C 1.785156 -10.691406 2.523438 -11.21875 3.390625 -11.59375 C 4.265625 -11.96875 5.21875 -12.15625 6.25 -12.15625 C 7.820312 -12.15625 8.960938 -11.816406 9.671875 -11.140625 C 10.378906 -10.472656 10.734375 -9.523438 10.734375 -8.296875 L 10.734375 -3.109375 C 10.734375 -2.578125 10.96875 -2.3125 11.4375 -2.3125 C 11.613281 -2.3125 11.789062 -2.34375 11.96875 -2.40625 L 12.125 -2.375 L 12.328125 -0.28125 C 12.171875 -0.175781 11.941406 -0.0859375 11.640625 -0.015625 C 11.347656 0.0546875 11.023438 0.09375 10.671875 0.09375 C 9.953125 0.09375 9.394531 -0.0390625 9 -0.3125 C 8.601562 -0.59375 8.316406 -1.023438 8.140625 -1.609375 L 7.90625 -1.625 C 7.320312 -0.382812 6.238281 0.234375 4.65625 0.234375 Z M 5.59375 -2.015625 C 6.289062 -2.015625 6.84375 -2.242188 7.25 -2.703125 C 7.664062 -3.171875 7.875 -3.820312 7.875 -4.65625 L 7.875 -5.859375 L 7.671875 -5.90625 C 7.492188 -5.757812 7.257812 -5.632812 6.96875 -5.53125 C 6.675781 -5.4375 6.253906 -5.34375 5.703125 -5.25 C 5.054688 -5.144531 4.585938 -4.957031 4.296875 -4.6875 C 4.015625 -4.425781 3.875 -4.054688 3.875 -3.578125 C 3.875 -3.066406 4.023438 -2.675781 4.328125 -2.40625 C 4.640625 -2.144531 5.0625 -2.015625 5.59375 -2.015625 Z M 5.59375 -2.015625 "/></g></g><g transform="translate(43.099553, 26.713083)"><g><path d="M 8.328125 0.234375 C 6.804688 0.234375 5.675781 -0.335938 4.9375 -1.484375 L 4.71875 -1.4375 L 4.71875 0 L 1.71875 0 L 1.71875 -16.71875 L 4.71875 -16.71875 L 4.71875 -10.515625 L 4.9375 -10.46875 C 5.351562 -11.039062 5.835938 -11.460938 6.390625 -11.734375 C 6.953125 -12.015625 7.625 -12.15625 8.40625 -12.15625 C 9.363281 -12.15625 10.203125 -11.925781 10.921875 -11.46875 C 11.648438 -11.019531 12.210938 -10.332031 12.609375 -9.40625 C 13.015625 -8.476562 13.21875 -7.328125 13.21875 -5.953125 C 13.21875 -4.597656 13.007812 -3.457031 12.59375 -2.53125 C 12.175781 -1.601562 11.597656 -0.910156 10.859375 -0.453125 C 10.128906 0.00390625 9.285156 0.234375 8.328125 0.234375 Z M 7.421875 -2.3125 C 8.304688 -2.3125 8.976562 -2.601562 9.4375 -3.1875 C 9.894531 -3.78125 10.125 -4.703125 10.125 -5.953125 C 10.125 -7.210938 9.894531 -8.132812 9.4375 -8.71875 C 8.976562 -9.3125 8.304688 -9.609375 7.421875 -9.609375 C 6.578125 -9.609375 5.910156 -9.304688 5.421875 -8.703125 C 4.929688 -8.097656 4.6875 -7.179688 4.6875 -5.953125 C 4.6875 -4.734375 4.929688 -3.820312 5.421875 -3.21875 C 5.910156 -2.613281 6.578125 -2.3125 7.421875 -2.3125 Z M 7.421875 -2.3125 "/></g></g><g transform="translate(57.380429, 26.713083)"><g><path d="M 3.203125 -13.34375 C 2.671875 -13.34375 2.234375 -13.503906 1.890625 -13.828125 C 1.554688 -14.160156 1.390625 -14.585938 1.390625 -15.109375 C 1.390625 -15.617188 1.554688 -16.035156 1.890625 -16.359375 C 2.234375 -16.691406 2.671875 -16.859375 3.203125 -16.859375 C 3.566406 -16.859375 3.890625 -16.78125 4.171875 -16.625 C 4.453125 -16.476562 4.671875 -16.273438 4.828125 -16.015625 C 4.984375 -15.753906 5.0625 -15.453125 5.0625 -15.109375 C 5.0625 -14.773438 4.984375 -14.472656 4.828125 -14.203125 C 4.671875 -13.941406 4.453125 -13.734375 4.171875 -13.578125 C 3.890625 -13.421875 3.566406 -13.34375 3.203125 -13.34375 Z M 1.71875 0 L 1.71875 -11.921875 L 4.71875 -11.921875 L 4.71875 0 Z M 1.71875 0 "/></g></g><g transform="translate(63.801958, 26.713083)"><g><path d="M 5.890625 0.234375 C 4.941406 0.234375 4.101562 0.00390625 3.375 -0.453125 C 2.65625 -0.910156 2.085938 -1.601562 1.671875 -2.53125 C 1.265625 -3.457031 1.0625 -4.597656 1.0625 -5.953125 C 1.0625 -7.316406 1.269531 -8.460938 1.6875 -9.390625 C 2.113281 -10.316406 2.703125 -11.007812 3.453125 -11.46875 C 4.203125 -11.925781 5.066406 -12.15625 6.046875 -12.15625 C 6.785156 -12.15625 7.425781 -12.023438 7.96875 -11.765625 C 8.519531 -11.515625 8.976562 -11.117188 9.34375 -10.578125 L 9.578125 -10.625 L 9.578125 -16.71875 L 12.578125 -16.71875 L 12.578125 0 L 9.578125 0 L 9.578125 -1.546875 L 9.34375 -1.59375 C 9.019531 -1.03125 8.566406 -0.582031 7.984375 -0.25 C 7.410156 0.0703125 6.710938 0.234375 5.890625 0.234375 Z M 6.859375 -2.3125 C 7.703125 -2.3125 8.367188 -2.613281 8.859375 -3.21875 C 9.347656 -3.820312 9.59375 -4.734375 9.59375 -5.953125 C 9.59375 -7.179688 9.347656 -8.097656 8.859375 -8.703125 C 8.367188 -9.304688 7.703125 -9.609375 6.859375 -9.609375 C 5.984375 -9.609375 5.3125 -9.3125 4.84375 -8.71875 C 4.382812 -8.132812 4.15625 -7.210938 4.15625 -5.953125 C 4.15625 -4.703125 4.382812 -3.78125 4.84375 -3.1875 C 5.3125 -2.601562 5.984375 -2.3125 6.859375 -2.3125 Z M 6.859375 -2.3125 "/></g></g><g transform="translate(78.093645, 26.713083)"><g><path d="M 4.65625 0.234375 C 3.882812 0.234375 3.21875 0.09375 2.65625 -0.1875 C 2.09375 -0.46875 1.660156 -0.878906 1.359375 -1.421875 C 1.054688 -1.972656 0.90625 -2.628906 0.90625 -3.390625 C 0.90625 -4.097656 1.054688 -4.691406 1.359375 -5.171875 C 1.660156 -5.648438 2.128906 -6.039062 2.765625 -6.34375 C 3.398438 -6.65625 4.226562 -6.894531 5.25 -7.0625 C 5.96875 -7.175781 6.507812 -7.300781 6.875 -7.4375 C 7.25 -7.570312 7.5 -7.722656 7.625 -7.890625 C 7.757812 -8.066406 7.828125 -8.289062 7.828125 -8.5625 C 7.828125 -8.945312 7.691406 -9.238281 7.421875 -9.4375 C 7.160156 -9.632812 6.71875 -9.734375 6.09375 -9.734375 C 5.4375 -9.734375 4.804688 -9.585938 4.203125 -9.296875 C 3.609375 -9.003906 3.09375 -8.613281 2.65625 -8.125 L 2.4375 -8.125 L 1.171875 -10.015625 C 1.785156 -10.691406 2.523438 -11.21875 3.390625 -11.59375 C 4.265625 -11.96875 5.21875 -12.15625 6.25 -12.15625 C 7.820312 -12.15625 8.960938 -11.816406 9.671875 -11.140625 C 10.378906 -10.472656 10.734375 -9.523438 10.734375 -8.296875 L 10.734375 -3.109375 C 10.734375 -2.578125 10.96875 -2.3125 11.4375 -2.3125 C 11.613281 -2.3125 11.789062 -2.34375 11.96875 -2.40625 L 12.125 -2.375 L 12.328125 -0.28125 C 12.171875 -0.175781 11.941406 -0.0859375 11.640625 -0.015625 C 11.347656 0.0546875 11.023438 0.09375 10.671875 0.09375 C 9.953125 0.09375 9.394531 -0.0390625 9 -0.3125 C 8.601562 -0.59375 8.316406 -1.023438 8.140625 -1.609375 L 7.90625 -1.625 C 7.320312 -0.382812 6.238281 0.234375 4.65625 0.234375 Z M 5.59375 -2.015625 C 6.289062 -2.015625 6.84375 -2.242188 7.25 -2.703125 C 7.664062 -3.171875 7.875 -3.820312 7.875 -4.65625 L 7.875 -5.859375 L 7.671875 -5.90625 C 7.492188 -5.757812 7.257812 -5.632812 6.96875 -5.53125 C 6.675781 -5.4375 6.253906 -5.34375 5.703125 -5.25 C 5.054688 -5.144531 4.585938 -4.957031 4.296875 -4.6875 C 4.015625 -4.425781 3.875 -4.054688 3.875 -3.578125 C 3.875 -3.066406 4.023438 -2.675781 4.328125 -2.40625 C 4.640625 -2.144531 5.0625 -2.015625 5.59375 -2.015625 Z M 5.59375 -2.015625 "/></g></g></g><g fill="#ffffff" fill-opacity="1"><g transform="translate(94.75537, 26.713083)"><g><path d="M 6.140625 5.0625 C 4.253906 5.0625 2.878906 4.742188 2.015625 4.109375 C 1.148438 3.484375 0.71875 2.65625 0.71875 1.625 C 0.71875 0.945312 0.921875 0.410156 1.328125 0.015625 C 1.734375 -0.378906 2.320312 -0.660156 3.09375 -0.828125 L 3.09375 -1.0625 C 2.726562 -1.269531 2.453125 -1.515625 2.265625 -1.796875 C 2.078125 -2.078125 1.984375 -2.410156 1.984375 -2.796875 C 1.984375 -3.253906 2.128906 -3.628906 2.421875 -3.921875 C 2.710938 -4.210938 3.148438 -4.429688 3.734375 -4.578125 L 3.734375 -4.8125 C 2.429688 -5.5 1.78125 -6.613281 1.78125 -8.15625 C 1.78125 -8.925781 1.957031 -9.613281 2.3125 -10.21875 C 2.664062 -10.832031 3.171875 -11.304688 3.828125 -11.640625 C 4.484375 -11.984375 5.25 -12.15625 6.125 -12.15625 C 7.125 -12.15625 7.957031 -11.929688 8.625 -11.484375 C 8.875 -11.765625 9.0625 -12.066406 9.1875 -12.390625 C 9.320312 -12.710938 9.40625 -13.078125 9.4375 -13.484375 L 9.671875 -13.625 L 11.109375 -13.28125 C 11.035156 -12.675781 10.851562 -12.160156 10.5625 -11.734375 C 10.269531 -11.316406 9.859375 -10.972656 9.328125 -10.703125 L 9.328125 -10.46875 C 9.710938 -10.164062 9.992188 -9.8125 10.171875 -9.40625 C 10.359375 -9 10.453125 -8.523438 10.453125 -7.984375 C 10.453125 -7.234375 10.269531 -6.554688 9.90625 -5.953125 C 9.550781 -5.359375 9.046875 -4.890625 8.390625 -4.546875 C 7.734375 -4.210938 6.976562 -4.046875 6.125 -4.046875 C 6.019531 -4.046875 5.835938 -4.050781 5.578125 -4.0625 C 5.285156 -4.082031 5.070312 -4.09375 4.9375 -4.09375 C 4.5625 -4.09375 4.257812 -3.992188 4.03125 -3.796875 C 3.8125 -3.597656 3.703125 -3.347656 3.703125 -3.046875 C 3.703125 -2.671875 3.820312 -2.394531 4.0625 -2.21875 C 4.3125 -2.039062 4.710938 -1.941406 5.265625 -1.921875 L 8.09375 -1.828125 C 9.300781 -1.785156 10.195312 -1.5 10.78125 -0.96875 C 11.375 -0.445312 11.671875 0.289062 11.671875 1.25 C 11.671875 1.957031 11.476562 2.597656 11.09375 3.171875 C 10.71875 3.742188 10.113281 4.203125 9.28125 4.546875 C 8.457031 4.890625 7.410156 5.0625 6.140625 5.0625 Z M 6.125 -5.5625 C 6.96875 -5.5625 7.617188 -5.78125 8.078125 -6.21875 C 8.535156 -6.65625 8.765625 -7.269531 8.765625 -8.0625 C 8.765625 -8.882812 8.535156 -9.519531 8.078125 -9.96875 C 7.617188 -10.414062 6.96875 -10.640625 6.125 -10.640625 C 5.269531 -10.640625 4.617188 -10.414062 4.171875 -9.96875 C 3.722656 -9.53125 3.5 -8.894531 3.5 -8.0625 C 3.5 -7.257812 3.722656 -6.640625 4.171875 -6.203125 C 4.617188 -5.773438 5.269531 -5.5625 6.125 -5.5625 Z M 6.140625 3.546875 C 7.015625 3.546875 7.734375 3.445312 8.296875 3.25 C 8.859375 3.0625 9.257812 2.804688 9.5 2.484375 C 9.75 2.160156 9.875 1.800781 9.875 1.40625 C 9.875 1.050781 9.804688 0.765625 9.671875 0.546875 C 9.535156 0.335938 9.316406 0.175781 9.015625 0.0625 C 8.722656 -0.0390625 8.320312 -0.109375 7.8125 -0.140625 L 5.140625 -0.265625 L 4.765625 -0.265625 C 3.273438 -0.242188 2.53125 0.332031 2.53125 1.46875 C 2.53125 2.851562 3.734375 3.546875 6.140625 3.546875 Z M 6.140625 3.546875 "/></g></g><g transform="translate(106.97141, 26.713083)"><g><path d="M 5.890625 0.234375 C 4.546875 0.234375 3.539062 -0.117188 2.875 -0.828125 C 2.21875 -1.546875 1.890625 -2.597656 1.890625 -3.984375 L 1.890625 -11.921875 L 3.65625 -11.921875 L 3.65625 -4.015625 C 3.65625 -2.210938 4.503906 -1.3125 6.203125 -1.3125 C 7.285156 -1.3125 8.140625 -1.660156 8.765625 -2.359375 C 9.390625 -3.066406 9.703125 -4.21875 9.703125 -5.8125 L 9.703125 -11.921875 L 11.46875 -11.921875 L 11.46875 0 L 9.8125 0 L 9.8125 -1.875 L 9.578125 -1.921875 C 9.171875 -1.191406 8.679688 -0.648438 8.109375 -0.296875 C 7.535156 0.0546875 6.796875 0.234375 5.890625 0.234375 Z M 5.890625 0.234375 "/></g></g><g transform="translate(120.517162, 26.713083)"><g><path d="M 4.75 0.234375 C 3.90625 0.234375 3.238281 -0.00390625 2.75 -0.484375 C 2.269531 -0.960938 2.03125 -1.679688 2.03125 -2.640625 L 2.03125 -16.71875 L 3.796875 -16.71875 L 3.796875 -2.75 C 3.796875 -2.257812 3.890625 -1.898438 4.078125 -1.671875 C 4.273438 -1.453125 4.570312 -1.34375 4.96875 -1.34375 C 5.21875 -1.34375 5.46875 -1.382812 5.71875 -1.46875 L 5.875 -1.421875 L 6.078125 -0.046875 C 5.941406 0.046875 5.753906 0.113281 5.515625 0.15625 C 5.273438 0.207031 5.019531 0.234375 4.75 0.234375 Z M 4.75 0.234375 "/></g></g></g><g fill="#ff3326" fill-opacity="1"><g transform="translate(128.520248, 27.219045)"><g><path d="M 2.6875 0.078125 C 2.351562 0.078125 2.054688 0.0078125 1.796875 -0.125 C 1.535156 -0.257812 1.335938 -0.445312 1.203125 -0.6875 C 1.066406 -0.925781 1 -1.195312 1 -1.5 C 1 -1.8125 1.066406 -2.085938 1.203125 -2.328125 C 1.335938 -2.566406 1.535156 -2.753906 1.796875 -2.890625 C 2.054688 -3.035156 2.351562 -3.109375 2.6875 -3.109375 C 3.03125 -3.109375 3.332031 -3.039062 3.59375 -2.90625 C 3.851562 -2.769531 4.050781 -2.578125 4.1875 -2.328125 C 4.320312 -2.085938 4.390625 -1.816406 4.390625 -1.515625 C 4.390625 -1.046875 4.234375 -0.660156 3.921875 -0.359375 C 3.617188 -0.0664062 3.207031 0.078125 2.6875 0.078125 Z M 2.6875 0.078125 "/></g></g></g></svg>